<?xml version="1.0" encoding="UTF-8" standalone="no"?>
<!-- Created with Inkscape (http://www.inkscape.org/) -->

<svg
   width="148.76945mm"
   height="76.354729mm"
   viewBox="0 0 148.76946 76.354729"
   version="1.1"
   id="svg5"
   inkscape:version="1.3.2 (091e20ef0f, 2023-11-25, custom)"
   inkscape:export-filename="bitmap.png"
   inkscape:export-xdpi="122.88"
   inkscape:export-ydpi="122.88"
   sodipodi:docname="logo-vec.svg"
   xmlns:inkscape="http://www.inkscape.org/namespaces/inkscape"
   xmlns:sodipodi="http://sodipodi.sourceforge.net/DTD/sodipodi-0.dtd"
   xmlns="http://www.w3.org/2000/svg"
   xmlns:svg="http://www.w3.org/2000/svg">
  <sodipodi:namedview
     id="namedview7"
     pagecolor="#222222"
     bordercolor="#eeeeee"
     borderopacity="1"
     inkscape:pageshadow="0"
     inkscape:pageopacity="0"
     inkscape:pagecheckerboard="0"
     inkscape:document-units="mm"
     showgrid="false"
     fit-margin-top="0"
     fit-margin-left="0"
     fit-margin-right="0"
     fit-margin-bottom="0"
     inkscape:showpageshadow="0"
     inkscape:deskcolor="#d1d1d1"
     inkscape:zoom="1.275"
     inkscape:cx="202.35294"
     inkscape:cy="405.4902"
     inkscape:window-width="1920"
     inkscape:window-height="1014"
     inkscape:window-x="1920"
     inkscape:window-y="29"
     inkscape:window-maximized="1"
     inkscape:current-layer="layer1" />
  <defs
     id="defs2" />
  <g
     inkscape:label="Layer 1"
     inkscape:groupmode="layer"
     id="layer1"
     transform="translate(-74.497375,-157.91272)"
     style="display:inline">
    <rect
       style="fill:#ffffff;fill-opacity:1;stroke-width:0.529849;stroke-linecap:round;stroke-linejoin:round;paint-order:stroke fill markers"
       id="rect5"
       width="148.76945"
       height="76.354729"
       x="74.497375"
       y="157.91272"
       ry="7.4295506" />
    <g
       id="g9"
       transform="translate(0.1940093,0.80549478)">
      <path
         style="font-size:39.1208px;line-height:1.25;font-family:'CMU Serif';-inkscape-font-specification:'CMU Serif';font-variant-ligatures:none;letter-spacing:-0.668313px;fill:#000000;fill-opacity:1;stroke-width:1.63003"
         d="m 135.83567,196.5545 v -1.20343 q 1.79558,0 3.11362,-0.55395 1.31803,-0.55396 1.70007,-0.9551 0.40114,-0.42024 0.85959,-1.08881 l 6.41826,-9.45547 -7.20144,-10.88811 q -0.55396,-0.82139 -1.29893,-1.08881 -0.72588,-0.26743 -2.33044,-0.26743 h -0.74498 v -1.22253 q 2.15852,0.11462 5.08112,0.11462 4.33615,0 5.71149,-0.11462 v 1.22253 q -1.16522,0.0382 -1.85289,0.42024 -0.68767,0.36294 -0.68767,0.74498 0,0.15281 0.26742,0.59216 l 5.04292,7.54527 4.46986,-6.60928 q 0.34383,-0.55395 0.34383,-0.89779 0,-0.70677 -0.64946,-1.22252 -0.63037,-0.53486 -1.77649,-0.57306 v -1.22253 q 1.56636,0.11462 5.02382,0.11462 0.43934,0 1.14611,-0.0191 0.72588,-0.0191 1.68098,-0.0573 0.95509,-0.0382 1.50905,-0.0382 v 1.22253 q -3.9541,0.0382 -5.67328,2.54056 l -5.36765,7.8509 8.25205,12.49268 q 0.59216,0.85959 1.33713,1.14612 0.74498,0.26742 2.34954,0.26742 h 0.74498 v 1.20343 q -2.46415,-0.11462 -5.08112,-0.11462 -4.33614,0 -5.71148,0.11462 v -1.20343 q 1.16521,-0.0382 1.85288,-0.40114 0.68767,-0.38204 0.68767,-0.78318 0,-0.0382 -0.21012,-0.42024 l -6.16993,-9.35996 -5.55867,8.21384 q -0.38203,0.63037 -0.38203,0.936 0,0.63036 0.61126,1.20342 0.63036,0.55396 1.85289,0.61126 v 1.20343 q -1.41355,-0.11462 -5.02382,-0.11462 -0.11461,0 -4.33614,0.11462 z"
         id="path3" />
      <path
         style="font-size:39.1208px;line-height:1.25;font-family:'CMU Serif';-inkscape-font-specification:'CMU Serif';font-variant-ligatures:none;letter-spacing:-0.668313px;fill:#000000;fill-opacity:1;stroke-width:1.63003"
         d="m 115.59976,205.05235 v -1.20343 h 0.936 q 2.12032,0 2.59786,-0.34383 0.49666,-0.36294 0.49666,-1.50906 v -20.49639 q 0,-1.12702 -0.49666,-1.47085 -0.49665,-0.36294 -2.59786,-0.36294 h -0.936 v -1.22252 h 22.02455 l 1.08882,8.806 h -0.9742 q -0.26743,-2.23493 -0.63037,-3.51476 -0.34383,-1.29894 -1.20342,-2.29224 -0.84049,-0.9933 -2.23493,-1.37534 -1.37534,-0.40114 -3.61027,-0.40114 h -5.04291 q -1.33714,0 -1.62367,0.28653 -0.28653,0.26743 -0.28653,1.27983 v 9.37906 h 3.51476 q 2.69338,0 3.45745,-0.936 0.76408,-0.93599 0.76408,-3.62937 h 0.9933 v 10.35326 h -0.9933 q 0,-2.65517 -0.76408,-3.61027 -0.76407,-0.9551 -3.45745,-0.9551 h -3.51476 v 10.44877 q 0,1.01241 0.28653,1.29894 0.30563,0.26742 1.62367,0.26742 h 5.21483 q 1.68097,0 2.9035,-0.21012 1.24162,-0.22922 2.10121,-0.76408 0.85959,-0.55395 1.43265,-1.18432 0.59216,-0.63036 0.9933,-1.75738 0.42024,-1.14611 0.64947,-2.19672 0.24832,-1.05061 0.51575,-2.76979 h 0.9742 l -1.64277,10.08584 z"
         id="path2" />
      <path
         style="font-size:39.1208px;line-height:1.25;font-family:'CMU Serif';-inkscape-font-specification:'CMU Serif';font-variant-ligatures:none;letter-spacing:-0.668313px;fill:#000000;fill-opacity:1;stroke-width:1.63003"
         d="m 93.557295,178.86609 0.744976,-8.7869 h 23.896539 l 0.74498,8.7869 h -0.9742 q -0.15282,-1.75738 -0.30563,-2.76979 -0.13372,-1.0124 -0.47755,-1.9675 -0.32474,-0.9742 -0.74498,-1.43264 -0.40114,-0.47755 -1.18432,-0.84049 -0.78318,-0.38204 -1.79558,-0.47755 -1.01241,-0.0955 -2.54056,-0.0955 -1.79559,0 -2.23493,0.0764 -0.47755,0.11461 -0.59216,0.45845 -0.11461,0.32473 -0.11461,1.0315 v 20.61101 q 0,0.78318 0.15281,1.10791 0.17192,0.30563 1.06971,0.55396 0.89779,0.22922 2.8844,0.22922 h 1.56636 v 1.20343 q -1.60457,-0.11462 -7.43066,-0.11462 -5.78789,0 -7.392456,0.11462 v -1.20343 h 1.566356 q 1.98661,0 2.8844,-0.22922 0.91689,-0.24833 1.06971,-0.55396 0.15281,-0.32473 0.15281,-1.10791 v -20.61101 q 0,-0.55395 -0.0382,-0.78318 -0.0382,-0.22922 -0.21012,-0.42024 -0.17191,-0.21012 -0.57306,-0.28653 -0.38203,-0.0764 -2.10121,-0.0764 -1.52816,0 -2.559663,0.0955 -1.012403,0.0955 -1.795583,0.47755 -0.78318,0.36294 -1.203423,0.84049 -0.401141,0.45844 -0.744976,1.43264 -0.324734,0.9551 -0.458447,1.9675 -0.133714,1.01241 -0.28653,2.76979 z"
         id="text1" />
      <path
         style="font-style:italic;font-size:41.4449px;line-height:1.25;font-family:'CMU Serif';-inkscape-font-specification:'CMU Serif';font-variant-ligatures:none;letter-spacing:-0.708015px;stroke-width:1.72687"
         d="m 144.40293,213.47333 q 0,-5.09966 3.31883,-8.29707 3.31883,-3.21765 6.96144,-3.21765 1.90226,0 3.03552,1.01184 1.1535,1.01184 1.1535,2.50936 0,0.20237 -0.0202,0.44521 -0.0202,0.2226 -0.18213,0.80947 -0.1619,0.56663 -0.48568,1.07255 -0.30356,0.48568 -0.99161,1.05231 -0.68805,0.54639 -1.5987,0.93089 -2.32723,0.91066 -6.01032,0.91066 h -1.59871 q -0.70828,2.73196 -0.70828,4.55327 0,1.03207 0.20237,1.96297 0.20236,0.91065 0.95112,1.7606 0.74876,0.8297 1.98321,0.8297 0.70828,0 1.5987,-0.14165 0.89042,-0.14166 2.69149,-1.1535 1.80107,-1.01184 3.17717,-2.7522 0.36427,-0.46545 0.5464,-0.46545 0.24284,0 0.44521,0.26308 0.20236,0.24284 0.20236,0.40474 0,0.40473 -1.01184,1.49752 -1.01183,1.07255 -3.17717,2.18557 -2.1451,1.09278 -4.55327,1.09278 -2.81291,0 -4.37114,-2.14509 -1.55823,-2.1451 -1.55823,-5.11991 z m 3.82475,-3.68309 h 0.87018 q 0.62734,0 1.11302,-0.0202 0.50592,-0.0202 1.5987,-0.12142 1.09279,-0.10119 1.9225,-0.3845 0.8297,-0.30356 1.72012,-0.74876 0.89042,-0.46545 1.35586,-1.27492 0.48569,-0.80947 0.48569,-1.84155 0,-1.07254 -0.70829,-1.80107 -0.68805,-0.72852 -1.90226,-0.72852 -0.28331,0 -0.66781,0.0607 -0.36426,0.0607 -1.25468,0.44521 -0.89042,0.36426 -1.63918,1.03207 -0.74876,0.64758 -1.57846,2.06415 -0.80948,1.41658 -1.31539,3.31883 z m 12.1828,4.5128 q 0,-4.5128 3.01528,-8.41849 3.03552,-3.92594 6.47577,-3.92594 2.32722,0 3.48072,2.40818 l 2.40818,-9.71365 0.0405,-0.32379 q 0.0809,-0.28331 0.0809,-0.36426 0,-0.24284 -0.0809,-0.36426 -0.081,-0.14166 -0.56663,-0.24284 -0.46545,-0.10119 -1.41657,-0.10119 -0.99161,0 -0.99161,-0.46544 0,-0.36426 0.14166,-0.5464 0.14166,-0.20236 0.30355,-0.24284 0.1619,-0.0405 0.50592,-0.0809 l 4.08783,-0.32379 q 0.24284,-0.081 0.66781,-0.081 0.58687,0 0.58687,0.48568 0,0.1619 -0.12142,0.5464 l -5.92937,23.65678 q -0.24285,0.9916 -0.24285,1.92249 0,1.67965 1.05232,1.67965 0,0 0.0202,0 1.538,0 2.77244,-4.91753 0.16189,-0.66782 0.28331,-0.80947 0.14166,-0.14166 0.50592,-0.14166 0.62734,0 0.62734,0.40474 0,0.0809 -0.16189,0.72852 -0.14166,0.64758 -0.44521,1.63918 -0.30355,0.9916 -0.64758,1.69989 -1.11302,2.32722 -3.01527,2.32722 -1.19397,0 -2.16534,-0.72852 -0.95113,-0.72852 -1.27491,-2.18557 -2.36771,2.89386 -4.97825,2.91409 -2.28675,0 -3.66285,-1.84154 -1.35587,-1.86178 -1.35587,-4.59375 z m 2.81291,1.82131 q 0,1.3761 0.50592,2.5296 0.50592,1.15349 1.78084,1.15349 1.53799,0 3.19741,-1.67965 1.65941,-1.69989 1.94273,-2.91409 l 1.9832,-7.95305 q 0.12142,-0.36427 0.12142,-0.5464 0,-1.33562 -0.80947,-2.65101 -0.78923,-1.19397 -2.04391,-1.19397 -1.23445,0 -2.54984,1.33562 -1.29515,1.31539 -2.08438,3.25812 -0.62734,1.45705 -1.33563,4.33067 -0.70829,2.87362 -0.70829,4.33067 z m 16.61466,-7.79115 q 0,-0.12143 0.1619,-0.72853 0.16189,-0.62734 0.56662,-1.5987 0.42498,-0.9916 1.01184,-1.88202 0.58687,-0.89042 1.538,-1.51776 0.95113,-0.64758 2.02367,-0.64758 1.27492,0 2.18558,0.84995 0.93089,0.84994 0.93089,2.46888 0,0.87018 -0.50592,2.30699 l -2.65102,7.10311 q -1.07255,3.07599 -1.07255,3.96641 0,1.15349 0.91066,1.15349 2.44865,0 3.84498,-5.18061 0.12142,-0.50592 0.22261,-0.58687 0.12142,-0.10118 0.48568,-0.10118 0.62734,0 0.62734,0.40474 0,0.12142 -0.1619,0.72852 -0.16189,0.6071 -0.58686,1.57847 -0.40474,0.97136 -0.97137,1.88202 -0.56663,0.91065 -1.51775,1.55823 -0.95113,0.64757 -2.02368,0.64757 -1.53799,0 -2.34747,-0.9916 -0.80947,-1.01184 -0.80947,-2.32723 0,-0.8297 0.74876,-2.87362 0.99161,-2.73196 1.538,-4.08782 l 1.23444,-3.44025 q 0.74876,-2.02368 0.74876,-2.99505 0,-1.15349 -0.91065,-1.15349 -2.44865,0 -3.84499,5.22108 -0.12142,0.46545 -0.26308,0.56663 -0.12142,0.10119 -0.48568,0.10119 -0.62734,-0.0202 -0.62734,-0.42497 z m 6.67813,-13.25509 q 0,-0.82971 0.62734,-1.39633 0.64758,-0.58687 1.35587,-0.58687 0.54639,0 0.97136,0.32379 0.44521,0.32379 0.44521,1.03207 0,0.82971 -0.64758,1.41658 -0.64757,0.56663 -1.35586,0.56663 -0.54639,0 -0.97136,-0.32379 -0.42498,-0.32379 -0.42498,-1.03208 z m 5.60586,8.11495 q 0,-0.5464 0.26308,-0.66782 0.28331,-0.12142 0.91065,-0.12142 h 3.5212 l 1.61894,-6.57695 q 0.40474,-1.49752 1.61894,-1.49752 1.11303,0 1.11303,1.07255 0,0.28332 -0.1619,0.87018 l -1.53799,6.13174 h 3.31883 q 0.40473,0 0.56663,0.0202 0.18213,0.0202 0.32378,0.14166 0.14166,0.10118 0.14166,0.34402 0,0.54639 -0.28331,0.66781 -0.26308,0.12143 -0.87018,0.12143 h -3.54144 l -3.05575,12.30395 q -0.28331,1.1535 -0.28331,2.12486 0,1.67965 1.09278,1.67965 0,0 0.0202,0 1.57847,0 2.79267,-1.55823 1.23444,-1.57847 1.96297,-3.5212 0.24284,-0.58686 0.34402,-0.68805 0.12142,-0.10118 0.48569,-0.10118 0.62734,0 0.62734,0.40474 0,0.12142 -0.24285,0.74876 -0.24284,0.62734 -0.78923,1.5987 -0.54639,0.97137 -1.25468,1.86178 -0.68805,0.89042 -1.78083,1.538 -1.07255,0.64757 -2.22605,0.64757 -1.57847,0 -2.54983,-1.07254 -0.97137,-1.09279 -0.97137,-2.67126 0,-0.58686 0.20237,-1.39634 l 2.97481,-11.89921 h -3.2986 q -0.40473,0 -0.58686,-0.0202 -0.1619,-0.0202 -0.32379,-0.12142 -0.14166,-0.12142 -0.14166,-0.36426 z"
         id="text5"
         aria-label="edit" />
    </g>
  </g>
</svg>
