<?xml version="1.0" encoding="UTF-8" standalone="no"?>
<!-- Created with Inkscape (http://www.inkscape.org/) -->

<svg
   width="110.442mm"
   height="77.848mm"
   viewBox="0 0 110.44201 77.848"
   version="1.1"
   id="svg5"
   inkscape:version="1.3.2 (091e20ef0f, 2023-11-25, custom)"
   inkscape:export-filename="bitmap.png"
   inkscape:export-xdpi="122.88"
   inkscape:export-ydpi="122.88"
   sodipodi:docname="logo-transparent.svg"
   xmlns:inkscape="http://www.inkscape.org/namespaces/inkscape"
   xmlns:sodipodi="http://sodipodi.sourceforge.net/DTD/sodipodi-0.dtd"
   xmlns="http://www.w3.org/2000/svg"
   xmlns:svg="http://www.w3.org/2000/svg">
  <sodipodi:namedview
     id="namedview7"
     pagecolor="#222222"
     bordercolor="#eeeeee"
     borderopacity="1"
     inkscape:pageshadow="0"
     inkscape:pageopacity="0"
     inkscape:pagecheckerboard="0"
     inkscape:document-units="mm"
     showgrid="false"
     fit-margin-top="0"
     fit-margin-left="0"
     fit-margin-right="0"
     fit-margin-bottom="0"
     inkscape:showpageshadow="0"
     inkscape:deskcolor="#d1d1d1"
     inkscape:zoom="1.275"
     inkscape:cx="257.64706"
     inkscape:cy="165.4902"
     inkscape:window-width="1920"
     inkscape:window-height="1014"
     inkscape:window-x="1920"
     inkscape:window-y="29"
     inkscape:window-maximized="1"
     inkscape:current-layer="layer1" />
  <defs
     id="defs2" />
  <g
     inkscape:label="Layer 1"
     inkscape:groupmode="layer"
     id="layer1"
     transform="translate(-93.751304,-170.63635)"
     style="display:inline">
    <g
       id="g23">
      <g
         id="g9"
         transform="translate(0.1940093,0.80549478)">
        <path
           style="font-size:39.1208px;line-height:1.25;font-family:'CMU Serif';-inkscape-font-specification:'CMU Serif';font-variant-ligatures:none;letter-spacing:-0.668313px;fill:#3e4349;fill-opacity:1;stroke-width:1.63003"
           d="m 135.83567,196.5545 v -1.20343 q 1.79558,0 3.11362,-0.55395 1.31803,-0.55396 1.70007,-0.9551 0.40114,-0.42024 0.85959,-1.08881 l 6.41826,-9.45547 -7.20144,-10.88811 q -0.55396,-0.82139 -1.29893,-1.08881 -0.72588,-0.26743 -2.33044,-0.26743 h -0.74498 v -1.22253 q 2.15852,0.11462 5.08112,0.11462 4.33615,0 5.71149,-0.11462 v 1.22253 q -1.16522,0.0382 -1.85289,0.42024 -0.68767,0.36294 -0.68767,0.74498 0,0.15281 0.26742,0.59216 l 5.04292,7.54527 4.46986,-6.60928 q 0.34383,-0.55395 0.34383,-0.89779 0,-0.70677 -0.64946,-1.22252 -0.63037,-0.53486 -1.77649,-0.57306 v -1.22253 q 1.56636,0.11462 5.02382,0.11462 0.43934,0 1.14611,-0.0191 0.72588,-0.0191 1.68098,-0.0573 0.95509,-0.0382 1.50905,-0.0382 v 1.22253 q -3.9541,0.0382 -5.67328,2.54056 l -5.36765,7.8509 8.25205,12.49268 q 0.59216,0.85959 1.33713,1.14612 0.74498,0.26742 2.34954,0.26742 h 0.74498 v 1.20343 q -2.46415,-0.11462 -5.08112,-0.11462 -4.33614,0 -5.71148,0.11462 v -1.20343 q 1.16521,-0.0382 1.85288,-0.40114 0.68767,-0.38204 0.68767,-0.78318 0,-0.0382 -0.21012,-0.42024 l -6.16993,-9.35996 -5.55867,8.21384 q -0.38203,0.63037 -0.38203,0.936 0,0.63036 0.61126,1.20342 0.63036,0.55396 1.85289,0.61126 v 1.20343 q -1.41355,-0.11462 -5.02382,-0.11462 -0.11461,0 -4.33614,0.11462 z"
           id="path3" />
        <path
           style="font-size:39.1208px;line-height:1.25;font-family:'CMU Serif';-inkscape-font-specification:'CMU Serif';font-variant-ligatures:none;letter-spacing:-0.668313px;fill:#3e4349;fill-opacity:1;stroke-width:1.63003"
           d="m 115.59976,205.05235 v -1.20343 h 0.936 q 2.12032,0 2.59786,-0.34383 0.49666,-0.36294 0.49666,-1.50906 v -20.49639 q 0,-1.12702 -0.49666,-1.47085 -0.49665,-0.36294 -2.59786,-0.36294 h -0.936 v -1.22252 h 22.02455 l 1.08882,8.806 h -0.9742 q -0.26743,-2.23493 -0.63037,-3.51476 -0.34383,-1.29894 -1.20342,-2.29224 -0.84049,-0.9933 -2.23493,-1.37534 -1.37534,-0.40114 -3.61027,-0.40114 h -5.04291 q -1.33714,0 -1.62367,0.28653 -0.28653,0.26743 -0.28653,1.27983 v 9.37906 h 3.51476 q 2.69338,0 3.45745,-0.936 0.76408,-0.93599 0.76408,-3.62937 h 0.9933 v 10.35326 h -0.9933 q 0,-2.65517 -0.76408,-3.61027 -0.76407,-0.9551 -3.45745,-0.9551 h -3.51476 v 10.44877 q 0,1.01241 0.28653,1.29894 0.30563,0.26742 1.62367,0.26742 h 5.21483 q 1.68097,0 2.9035,-0.21012 1.24162,-0.22922 2.10121,-0.76408 0.85959,-0.55395 1.43265,-1.18432 0.59216,-0.63036 0.9933,-1.75738 0.42024,-1.14611 0.64947,-2.19672 0.24832,-1.05061 0.51575,-2.76979 h 0.9742 l -1.64277,10.08584 z"
           id="path2" />
        <path
           style="font-size:39.1208px;line-height:1.25;font-family:'CMU Serif';-inkscape-font-specification:'CMU Serif';font-variant-ligatures:none;letter-spacing:-0.668313px;fill:#3e4349;fill-opacity:1;stroke-width:1.63003"
           d="m 93.557295,178.86609 0.744976,-8.7869 h 23.896539 l 0.74498,8.7869 h -0.9742 q -0.15282,-1.75738 -0.30563,-2.76979 -0.13372,-1.0124 -0.47755,-1.9675 -0.32474,-0.9742 -0.74498,-1.43264 -0.40114,-0.47755 -1.18432,-0.84049 -0.78318,-0.38204 -1.79558,-0.47755 -1.01241,-0.0955 -2.54056,-0.0955 -1.79559,0 -2.23493,0.0764 -0.47755,0.11461 -0.59216,0.45845 -0.11461,0.32473 -0.11461,1.0315 v 20.61101 q 0,0.78318 0.15281,1.10791 0.17192,0.30563 1.06971,0.55396 0.89779,0.22922 2.8844,0.22922 h 1.56636 v 1.20343 q -1.60457,-0.11462 -7.43066,-0.11462 -5.78789,0 -7.392456,0.11462 v -1.20343 h 1.566356 q 1.98661,0 2.8844,-0.22922 0.91689,-0.24833 1.06971,-0.55396 0.15281,-0.32473 0.15281,-1.10791 v -20.61101 q 0,-0.55395 -0.0382,-0.78318 -0.0382,-0.22922 -0.21012,-0.42024 -0.17191,-0.21012 -0.57306,-0.28653 -0.38203,-0.0764 -2.10121,-0.0764 -1.52816,0 -2.559663,0.0955 -1.012403,0.0955 -1.795583,0.47755 -0.78318,0.36294 -1.203423,0.84049 -0.401141,0.45844 -0.744976,1.43264 -0.324734,0.9551 -0.458447,1.9675 -0.133714,1.01241 -0.28653,2.76979 z"
           id="text1" />
        <path
           style="font-style:italic;font-size:41.4449px;line-height:1.25;font-family:'CMU Serif';-inkscape-font-specification:'CMU Serif';font-variant-ligatures:none;letter-spacing:-0.708015px;fill:#3e4349;stroke-width:1.72687"
           d="m 144.40293,213.47333 q 0,-5.09966 3.31883,-8.29707 3.31883,-3.21765 6.96144,-3.21765 1.90226,0 3.03552,1.01184 1.1535,1.01184 1.1535,2.50936 0,0.20237 -0.0202,0.44521 -0.0202,0.2226 -0.18213,0.80947 -0.1619,0.56663 -0.48568,1.07255 -0.30356,0.48568 -0.99161,1.05231 -0.68805,0.54639 -1.5987,0.93089 -2.32723,0.91066 -6.01032,0.91066 h -1.59871 q -0.70828,2.73196 -0.70828,4.55327 0,1.03207 0.20237,1.96297 0.20236,0.91065 0.95112,1.7606 0.74876,0.8297 1.98321,0.8297 0.70828,0 1.5987,-0.14165 0.89042,-0.14166 2.69149,-1.1535 1.80107,-1.01184 3.17717,-2.7522 0.36427,-0.46545 0.5464,-0.46545 0.24284,0 0.44521,0.26308 0.20236,0.24284 0.20236,0.40474 0,0.40473 -1.01184,1.49752 -1.01183,1.07255 -3.17717,2.18557 -2.1451,1.09278 -4.55327,1.09278 -2.81291,0 -4.37114,-2.14509 -1.55823,-2.1451 -1.55823,-5.11991 z m 3.82475,-3.68309 h 0.87018 q 0.62734,0 1.11302,-0.0202 0.50592,-0.0202 1.5987,-0.12142 1.09279,-0.10119 1.9225,-0.3845 0.8297,-0.30356 1.72012,-0.74876 0.89042,-0.46545 1.35586,-1.27492 0.48569,-0.80947 0.48569,-1.84155 0,-1.07254 -0.70829,-1.80107 -0.68805,-0.72852 -1.90226,-0.72852 -0.28331,0 -0.66781,0.0607 -0.36426,0.0607 -1.25468,0.44521 -0.89042,0.36426 -1.63918,1.03207 -0.74876,0.64758 -1.57846,2.06415 -0.80948,1.41658 -1.31539,3.31883 z m 12.1828,4.5128 q 0,-4.5128 3.01528,-8.41849 3.03552,-3.92594 6.47577,-3.92594 2.32722,0 3.48072,2.40818 l 2.40818,-9.71365 0.0405,-0.32379 q 0.0809,-0.28331 0.0809,-0.36426 0,-0.24284 -0.0809,-0.36426 -0.081,-0.14166 -0.56663,-0.24284 -0.46545,-0.10119 -1.41657,-0.10119 -0.99161,0 -0.99161,-0.46544 0,-0.36426 0.14166,-0.5464 0.14166,-0.20236 0.30355,-0.24284 0.1619,-0.0405 0.50592,-0.0809 l 4.08783,-0.32379 q 0.24284,-0.081 0.66781,-0.081 0.58687,0 0.58687,0.48568 0,0.1619 -0.12142,0.5464 l -5.92937,23.65678 q -0.24285,0.9916 -0.24285,1.92249 0,1.67965 1.05232,1.67965 0,0 0.0202,0 1.538,0 2.77244,-4.91753 0.16189,-0.66782 0.28331,-0.80947 0.14166,-0.14166 0.50592,-0.14166 0.62734,0 0.62734,0.40474 0,0.0809 -0.16189,0.72852 -0.14166,0.64758 -0.44521,1.63918 -0.30355,0.9916 -0.64758,1.69989 -1.11302,2.32722 -3.01527,2.32722 -1.19397,0 -2.16534,-0.72852 -0.95113,-0.72852 -1.27491,-2.18557 -2.36771,2.89386 -4.97825,2.91409 -2.28675,0 -3.66285,-1.84154 -1.35587,-1.86178 -1.35587,-4.59375 z m 2.81291,1.82131 q 0,1.3761 0.50592,2.5296 0.50592,1.15349 1.78084,1.15349 1.53799,0 3.19741,-1.67965 1.65941,-1.69989 1.94273,-2.91409 l 1.9832,-7.95305 q 0.12142,-0.36427 0.12142,-0.5464 0,-1.33562 -0.80947,-2.65101 -0.78923,-1.19397 -2.04391,-1.19397 -1.23445,0 -2.54984,1.33562 -1.29515,1.31539 -2.08438,3.25812 -0.62734,1.45705 -1.33563,4.33067 -0.70829,2.87362 -0.70829,4.33067 z m 16.61466,-7.79115 q 0,-0.12143 0.1619,-0.72853 0.16189,-0.62734 0.56662,-1.5987 0.42498,-0.9916 1.01184,-1.88202 0.58687,-0.89042 1.538,-1.51776 0.95113,-0.64758 2.02367,-0.64758 1.27492,0 2.18558,0.84995 0.93089,0.84994 0.93089,2.46888 0,0.87018 -0.50592,2.30699 l -2.65102,7.10311 q -1.07255,3.07599 -1.07255,3.96641 0,1.15349 0.91066,1.15349 2.44865,0 3.84498,-5.18061 0.12142,-0.50592 0.22261,-0.58687 0.12142,-0.10118 0.48568,-0.10118 0.62734,0 0.62734,0.40474 0,0.12142 -0.1619,0.72852 -0.16189,0.6071 -0.58686,1.57847 -0.40474,0.97136 -0.97137,1.88202 -0.56663,0.91065 -1.51775,1.55823 -0.95113,0.64757 -2.02368,0.64757 -1.53799,0 -2.34747,-0.9916 -0.80947,-1.01184 -0.80947,-2.32723 0,-0.8297 0.74876,-2.87362 0.99161,-2.73196 1.538,-4.08782 l 1.23444,-3.44025 q 0.74876,-2.02368 0.74876,-2.99505 0,-1.15349 -0.91065,-1.15349 -2.44865,0 -3.84499,5.22108 -0.12142,0.46545 -0.26308,0.56663 -0.12142,0.10119 -0.48568,0.10119 -0.62734,-0.0202 -0.62734,-0.42497 z m 6.67813,-13.25509 q 0,-0.82971 0.62734,-1.39633 0.64758,-0.58687 1.35587,-0.58687 0.54639,0 0.97136,0.32379 0.44521,0.32379 0.44521,1.03207 0,0.82971 -0.64758,1.41658 -0.64757,0.56663 -1.35586,0.56663 -0.54639,0 -0.97136,-0.32379 -0.42498,-0.32379 -0.42498,-1.03208 z m 5.60586,8.11495 q 0,-0.5464 0.26308,-0.66782 0.28331,-0.12142 0.91065,-0.12142 h 3.5212 l 1.61894,-6.57695 q 0.40474,-1.49752 1.61894,-1.49752 1.11303,0 1.11303,1.07255 0,0.28332 -0.1619,0.87018 l -1.53799,6.13174 h 3.31883 q 0.40473,0 0.56663,0.0202 0.18213,0.0202 0.32378,0.14166 0.14166,0.10118 0.14166,0.34402 0,0.54639 -0.28331,0.66781 -0.26308,0.12143 -0.87018,0.12143 h -3.54144 l -3.05575,12.30395 q -0.28331,1.1535 -0.28331,2.12486 0,1.67965 1.09278,1.67965 0,0 0.0202,0 1.57847,0 2.79267,-1.55823 1.23444,-1.57847 1.96297,-3.5212 0.24284,-0.58686 0.34402,-0.68805 0.12142,-0.10118 0.48569,-0.10118 0.62734,0 0.62734,0.40474 0,0.12142 -0.24285,0.74876 -0.24284,0.62734 -0.78923,1.5987 -0.54639,0.97137 -1.25468,1.86178 -0.68805,0.89042 -1.78083,1.538 -1.07255,0.64757 -2.22605,0.64757 -1.57847,0 -2.54983,-1.07254 -0.97137,-1.09279 -0.97137,-2.67126 0,-0.58686 0.20237,-1.39634 l 2.97481,-11.89921 h -3.2986 q -0.40473,0 -0.58686,-0.0202 -0.1619,-0.0202 -0.32379,-0.12142 -0.14166,-0.12142 -0.14166,-0.36426 z"
           id="text5"
           aria-label="edit" />
      </g>
      <path
         id="path23"
         style="font-size:15.1091px;line-height:1.25;font-family:'CMU Serif';-inkscape-font-specification:'CMU Serif';font-variant-ligatures:none;letter-spacing:-0.258113px;fill:#3e4349;fill-opacity:1;stroke-width:0.58386"
         d="m 139.68394,226.11017 v 0.63623 h 0.48664 c 0.73519,0 1.18568,0.0626 1.35127,0.18849 0.1722,0.11922 0.25822,0.3743 0.25822,0.76508 v 10.17344 c 0,0.20533 -0.0134,0.3709 -0.0399,0.49675 -0.0265,0.11922 -0.0991,0.27189 -0.2183,0.45735 -0.11259,0.17883 -0.32441,0.31753 -0.6357,0.41688 -0.31131,0.0927 -0.71207,0.13949 -1.20221,0.13949 v 0.6256 c 1.42343,-0.0398 2.21513,-0.0597 2.37406,-0.0597 0.16559,0 0.96067,0.0199 2.38469,0.0597 v -0.6256 c -0.49012,0 -0.89089,-0.0468 -1.20219,-0.13949 -0.31132,-0.0993 -0.52662,-0.23805 -0.64583,-0.41688 -0.11258,-0.18546 -0.18219,-0.33814 -0.20871,-0.45735 -0.0265,-0.12585 -0.0399,-0.29142 -0.0399,-0.49675 v -10.96834 h 0.0202 l 4.90784,12.65771 c 0.10598,0.29805 0.24172,0.4467 0.4073,0.4467 0.15235,0 0.27517,-0.12876 0.36789,-0.38707 l 4.99728,-12.87601 h 0.0197 v 11.67381 c 0,0.3974 -0.0825,0.65893 -0.24812,0.78478 -0.16557,0.11923 -0.61607,0.17889 -1.35126,0.17889 h -0.49676 v 0.6256 c 0.50338,-0.0398 1.48045,-0.0597 2.93096,-0.0597 1.43729,0 2.40735,0.0199 2.91073,0.0597 v -0.6256 h -0.48662 c -0.7352,0 -1.18918,-0.0632 -1.3614,-0.189 -0.16557,-0.12585 -0.24811,-0.38389 -0.24811,-0.77467 v -10.72024 c 0,-0.39078 0.0825,-0.64586 0.24811,-0.76508 0.17222,-0.12585 0.6262,-0.18849 1.3614,-0.18849 h 0.48662 v -0.63623 h -3.43729 c -0.25826,0 -0.42087,0.0169 -0.48716,0.0501 -0.0596,0.0331 -0.12219,0.14548 -0.18847,0.33755 l -4.45102,11.45551 -4.41108,-11.39588 c -0.0993,-0.21192 -0.18236,-0.33771 -0.24864,-0.37748 -0.0662,-0.0464 -0.22187,-0.0697 -0.46694,-0.0697 z m -45.785833,0.074 v 0.62773 h 0.480773 c 0.719494,0 1.164179,0.062 1.334241,0.18634 0.170062,0.11774 0.255028,0.36959 0.255028,0.7555 v 7.57472 c 0,1.40628 0.497625,2.59633 1.491835,3.57093 1.000752,0.96804 2.190808,1.45243 3.570936,1.45243 1.13811,0 2.11958,-0.40247 2.94374,-1.20699 0.83068,-0.80453 1.33385,-1.78906 1.51047,-2.95333 0.0392,-0.26816 0.0591,-0.72914 0.0591,-1.38322 v -6.4364 c 0,-0.22238 0.0132,-0.39894 0.0394,-0.52975 0.0327,-0.13737 0.10444,-0.30068 0.21563,-0.49036 0.11119,-0.1897 0.32083,-0.32706 0.62825,-0.41209 0.30742,-0.085 0.70274,-0.12778 1.18677,-0.12778 v -0.62773 c -1.44553,0.0393 -2.23366,0.0591 -2.36447,0.0591 -0.15045,0 -0.94823,-0.0198 -2.39375,-0.0591 v 0.62773 c 0.48402,0 0.87987,0.0457 1.18728,0.13736 0.30742,0.0916 0.51653,0.22895 0.62773,0.41209 0.11772,0.18314 0.18999,0.33375 0.21616,0.45149 0.0262,0.11773 0.0388,0.27801 0.0388,0.48077 v 6.97575 c 0,1.35395 -0.38924,2.43667 -1.1676,3.24775 -0.77182,0.81107 -1.66781,1.21658 -2.68818,1.21658 -0.30742,0 -0.62135,-0.0493 -0.94185,-0.14749 -0.313958,-0.10465 -0.664016,-0.29391 -1.049925,-0.56862 -0.385911,-0.27471 -0.702879,-0.71992 -0.951432,-1.33477 -0.248552,-0.62138 -0.372692,-1.37998 -0.372692,-2.27609 v -7.65298 c 0,-0.38591 0.08139,-0.63724 0.244913,-0.75497 0.170062,-0.12428 0.61832,-0.18687 1.344356,-0.18687 h 0.480773 v -0.62773 c -0.470941,0.0393 -1.455467,0.0591 -2.953324,0.0591 -1.510938,0 -2.502082,-0.0198 -2.973023,-0.0591 z m 68.266123,3.82916 c -0.10488,0 -0.17775,0.0183 -0.21882,0.0548 -0.0411,0.0365 -0.0802,0.1117 -0.1166,0.22574 l -2.90061,8.3744 c -0.2144,0.6112 -0.73673,0.92625 -1.56691,0.94451 v 0.43073 l -5.3e-4,5.3e-4 c 0.64316,-0.0274 1.11754,-0.0415 1.42315,-0.0415 0.1779,0 0.71622,0.0141 1.61482,0.0415 v -0.43126 c -0.33754,0 -0.59753,-0.0705 -0.77999,-0.2119 -0.18245,-0.1414 -0.27366,-0.31018 -0.27366,-0.50632 0,-0.10494 0.009,-0.17597 0.0277,-0.21244 l 0.64955,-1.83365 h 3.46231 l 0.739,2.14191 c 0.0274,0.11402 0.041,0.1798 0.041,0.19807 0,0.2828 -0.3879,0.42433 -1.16334,0.42433 v 0.43126 c 0.33755,-0.0274 1.01086,-0.0415 2.01893,-0.0415 0.63403,0 1.24522,0.0141 1.83365,0.0415 v -0.43126 h -0.24651 c -0.42422,0 -0.71146,-0.0343 -0.86199,-0.10272 -0.15052,-0.0729 -0.26244,-0.22579 -0.33542,-0.45841 l -3.02413,-8.75774 c -0.0273,-0.0684 -0.0457,-0.11165 -0.0548,-0.12992 -0.009,-0.0183 -0.0251,-0.0437 -0.0479,-0.0756 -0.0228,-0.032 -0.0524,-0.0521 -0.0889,-0.0612 -0.0319,-0.009 -0.0751,-0.0138 -0.12991,-0.0138 z m 28.62972,0 c -0.10488,0 -0.17774,0.0183 -0.21882,0.0548 -0.0411,0.0365 -0.0802,0.1117 -0.1166,0.22574 l -2.90114,8.3744 c -0.21439,0.6112 -0.7362,0.92625 -1.56638,0.94451 v 0.43073 l -5.3e-4,5.3e-4 c 0.64317,-0.0274 1.11754,-0.0415 1.42316,-0.0415 0.17789,0 0.71622,0.0141 1.61482,0.0415 v -0.43126 c -0.33756,0 -0.59754,-0.0705 -0.78,-0.2119 -0.18244,-0.1414 -0.27366,-0.31018 -0.27366,-0.50632 0,-0.10494 0.009,-0.17597 0.0272,-0.21244 l 0.65008,-1.83365 h 3.46232 l 0.739,2.14191 c 0.0274,0.11402 0.041,0.1798 0.041,0.19807 0,0.2828 -0.38789,0.42433 -1.16333,0.42433 v 0.43126 c 0.33754,-0.0274 1.01031,-0.0415 2.01839,-0.0415 0.63403,0 1.24523,0.0141 1.83365,0.0415 v -0.43126 h -0.24598 c -0.42421,0 -0.71146,-0.0343 -0.86198,-0.10272 -0.15054,-0.0729 -0.26245,-0.22579 -0.33542,-0.45841 l -3.02414,-8.75774 c -0.0273,-0.0684 -0.0457,-0.11165 -0.0548,-0.12992 -0.009,-0.0183 -0.0251,-0.0437 -0.0479,-0.0756 -0.0228,-0.032 -0.0524,-0.0521 -0.0889,-0.0612 -0.0319,-0.009 -0.0751,-0.0138 -0.12991,-0.0138 z m -81.58829,0.15014 c -0.76632,0 -1.41419,0.26708 -1.94332,0.80075 -0.52456,0.52913 -0.78692,1.16757 -0.78692,1.91565 0,0.5793 0.16696,1.10635 0.49994,1.58074 0.33754,0.46984 0.78232,0.79796 1.33425,0.98498 0.0729,0.0319 0.68836,0.18708 1.84695,0.46533 0.1779,0.0456 0.31288,0.0847 0.40411,0.1166 0.0958,0.0319 0.21844,0.10004 0.36896,0.20498 0.1551,0.10035 0.29426,0.23061 0.41742,0.39026 0.29193,0.35579 0.43818,0.78693 0.43818,1.29325 0,0.52912 -0.1735,0.99642 -0.52018,1.40239 -0.34667,0.40141 -0.80033,0.60216 -1.36138,0.60216 -0.93053,0 -1.66726,-0.2529 -2.21007,-0.75922 -0.5519,-0.51088 -0.8415,-1.2298 -0.86891,-2.15576 -0.009,-0.0958 -0.066,-0.14322 -0.1709,-0.14322 -0.0547,0 -0.0961,0.0136 -0.12353,0.041 -0.0278,0.0274 -0.0438,0.0594 -0.0479,0.0958 -0.004,0.0365 -0.006,0.10697 -0.006,0.2119 v 2.80531 c 0,0.13229 0.006,0.22113 0.0202,0.26674 0.0137,0.0456 0.057,0.0681 0.12991,0.0681 0.0684,0 0.13945,-0.0611 0.21243,-0.18421 l 0.041,-0.0687 c 0.12316,-0.17333 0.27832,-0.41497 0.46534,-0.72515 0.24175,0.26912 0.58587,0.49949 1.03289,0.69108 0.44701,0.19157 0.96045,0.2875 1.53975,0.2875 0.80738,0 1.46889,-0.28777 1.98432,-0.86252 0.52001,-0.57473 0.77999,-1.25878 0.77999,-2.05247 0,-0.68877 -0.20075,-1.2976 -0.60216,-1.82672 -0.40141,-0.52913 -0.90122,-0.86434 -1.49876,-1.00574 l -1.79265,-0.43126 c -0.43333,-0.10492 -0.77745,-0.32403 -1.03289,-0.65701 -0.25544,-0.33754 -0.38334,-0.71128 -0.38334,-1.1218 0,-0.50632 0.17351,-0.93746 0.52017,-1.29325 0.35123,-0.36034 0.79363,-0.54041 1.32732,-0.54041 1.56,0 2.47025,0.97602 2.73024,2.92831 0.0228,0.10948 0.0796,0.16398 0.17091,0.16398 0.0547,0 0.0956,-0.0112 0.12298,-0.0341 0.0323,-0.0228 0.0507,-0.0524 0.0548,-0.0889 0.004,-0.0365 0.006,-0.107 0.006,-0.2119 v -2.81916 c 0,-0.13682 -0.009,-0.22567 -0.0277,-0.26674 -0.0137,-0.0456 -0.057,-0.0687 -0.12991,-0.0687 -0.0684,0 -0.13892,0.0616 -0.2119,0.18475 l -0.4861,0.80075 c -0.20527,-0.19614 -0.37405,-0.34894 -0.50633,-0.45842 -0.13228,-0.10947 -0.36029,-0.22375 -0.68415,-0.34233 -0.31931,-0.12316 -0.67051,-0.18475 -1.05366,-0.18475 z m 13.79443,0.30826 v 0.43766 h 0.33542 c 0.50175,0 0.81207,0.0433 0.93066,0.12991 0.1186,0.0821 0.17783,0.25797 0.17783,0.52709 v 7.38251 c 0,0.27369 -0.0592,0.45374 -0.17783,0.5404 -0.11403,0.0821 -0.42435,0.12352 -0.93066,0.12352 h -0.33542 v 0.43073 c 0.33754,-0.0274 1.01976,-0.041 2.04608,-0.041 1.02632,0 1.70801,0.0136 2.04555,0.041 v -0.43073 h -0.33489 c -0.50631,0 -0.819,-0.0438 -0.93759,-0.13044 -0.11404,-0.0866 -0.17091,-0.26435 -0.17091,-0.53348 v -3.5443 h 1.60791 c 0.54281,0 0.97813,0.15986 1.30655,0.47916 0.24176,0.23263 0.39036,0.4672 0.44511,0.70439 0.0592,0.2372 0.0889,0.62745 0.0889,1.17026 0,0.38316 0.006,0.6615 0.0202,0.83484 0.0137,0.17333 0.0616,0.36937 0.14375,0.58831 0.0866,0.21896 0.22347,0.41264 0.41049,0.58141 0.44702,0.39228 1.03568,0.58885 1.7655,0.58885 0.25089,0 0.47182,-0.0616 0.66339,-0.18475 0.1916,-0.1186 0.33076,-0.26721 0.41743,-0.4451 0.0913,-0.1779 0.15519,-0.34196 0.19166,-0.49249 0.0365,-0.15509 0.0548,-0.29897 0.0548,-0.43126 0,-0.15052 -0.0592,-0.22574 -0.17782,-0.22574 -0.0958,0 -0.15318,0.0752 -0.17144,0.22574 -0.0365,0.44702 -0.14605,0.76678 -0.3285,0.95836 -0.18247,0.19157 -0.38086,0.28697 -0.59525,0.28697 -0.11404,0 -0.21415,-0.0161 -0.30082,-0.0479 -0.0821,-0.0319 -0.15494,-0.0929 -0.21882,-0.18422 -0.0639,-0.0958 -0.11891,-0.18753 -0.16452,-0.27419 -0.041,-0.0912 -0.0819,-0.22987 -0.12299,-0.41689 -0.041,-0.18701 -0.0753,-0.34925 -0.10272,-0.48609 -0.0228,-0.13684 -0.0524,-0.33996 -0.0889,-0.60909 l -0.17782,-1.1218 c -0.21438,-0.76175 -0.7847,-1.30245 -1.71066,-1.62175 0.71157,-0.17789 1.29787,-0.47221 1.75857,-0.88274 0.46071,-0.41053 0.69108,-0.87783 0.69108,-1.4024 0,-0.68421 -0.35592,-1.27522 -1.0675,-1.77242 -0.70701,-0.50175 -1.56875,-0.75231 -2.58595,-0.75231 z m 44.09966,0 v 0.43766 h 0.40358 c 0.18702,0 0.41975,0.009 0.69799,0.0277 0.15972,0.0182 0.25564,0.0432 0.28751,0.0751 0.0365,0.0319 0.0548,0.11424 0.0548,0.24651 v 7.31383 c 0,0.14141 -0.0118,0.25568 -0.0346,0.34234 -0.0182,0.0821 -0.0662,0.18694 -0.14375,0.31467 -0.0776,0.12317 -0.22326,0.21909 -0.43765,0.2875 -0.21439,0.0639 -0.49037,0.0958 -0.82791,0.0958 v 0.43072 5.4e-4 c 0.98071,-0.0274 1.52612,-0.0415 1.63559,-0.0415 0.11403,0 0.66127,0.0141 1.64198,0.0415 v -0.43126 c -0.33755,0 -0.61353,-0.0319 -0.82792,-0.0958 -0.21438,-0.0684 -0.36245,-0.16434 -0.44457,-0.2875 -0.0776,-0.12772 -0.12555,-0.23255 -0.14374,-0.31467 -0.0182,-0.0866 -0.0277,-0.2004 -0.0277,-0.34181 v -7.2872 c 0.0547,0.0592 0.10035,0.11617 0.13682,0.17091 l 5.72031,8.40261 c 0.0958,0.12317 0.17571,0.18422 0.23958,0.18422 0.0913,0 0.14579,-0.0226 0.164,-0.0681 0.0182,-0.0456 0.0272,-0.1439 0.0272,-0.29443 v -7.73817 c 0,-0.13683 0.009,-0.2464 0.0277,-0.3285 0.0228,-0.0866 0.0726,-0.19386 0.15014,-0.32157 0.0776,-0.1277 0.2238,-0.22364 0.43819,-0.28752 0.21438,-0.0639 0.49037,-0.0958 0.82791,-0.0958 v -0.43775 c -0.9807,0.0274 -1.52794,0.041 -1.64198,0.041 -0.10948,0 -0.65488,-0.0136 -1.63559,-0.041 v 0.43766 c 0.33755,0 0.61352,0.0319 0.82791,0.0958 0.21438,0.0639 0.36063,0.1598 0.43818,0.28751 0.0821,0.12772 0.13188,0.23255 0.15014,0.31465 0.0182,0.0821 0.0277,0.19403 0.0277,0.33543 v 5.98704 l -4.94723,-7.27336 c -0.0639,-0.0866 -0.11367,-0.13933 -0.15014,-0.1576 -0.0365,-0.0182 -0.12115,-0.0272 -0.25343,-0.0272 z m 10.27034,0 v 0.43766 h 0.3349 c 0.50175,0 0.81207,0.0433 0.93066,0.12991 0.1186,0.0821 0.17783,0.25797 0.17783,0.52709 v 5.28212 c 0,0.9807 0.34648,1.811 1.03981,2.49065 0.6979,0.67509 1.5282,1.01266 2.49066,1.01266 0.79368,0 1.47773,-0.2807 2.05247,-0.84175 0.5793,-0.56105 0.93051,-1.24745 1.05366,-2.0594 0.0274,-0.187 0.0415,-0.50859 0.0415,-0.96474 v -4.48882 c 0,-0.15508 0.009,-0.27826 0.0272,-0.36949 0.0228,-0.0958 0.0731,-0.20953 0.15068,-0.34181 0.0776,-0.13231 0.22325,-0.22823 0.43765,-0.28751 0.21438,-0.0592 0.49035,-0.0889 0.8279,-0.0889 v -0.43762 c -1.00807,0.0274 -1.55767,0.041 -1.6489,0.041 -0.10491,0 -0.66105,-0.0136 -1.66913,-0.041 v 0.43766 c 0.33755,0 0.61352,0.0319 0.82791,0.0958 0.21439,0.0639 0.3601,0.15979 0.43765,0.28751 0.0821,0.12772 0.1324,0.23255 0.15067,0.31465 0.0182,0.0821 0.0272,0.19403 0.0272,0.33543 v 4.8647 c 0,0.94422 -0.27126,1.6993 -0.81407,2.26492 -0.53825,0.56561 -1.16306,0.84813 -1.87464,0.84813 -0.2144,0 -0.43351,-0.0343 -0.65701,-0.10272 -0.21894,-0.0729 -0.46295,-0.20508 -0.73207,-0.39665 -0.26912,-0.19158 -0.4906,-0.5019 -0.66393,-0.93067 -0.17333,-0.43333 -0.25982,-0.96222 -0.25982,-1.58714 v -5.33696 c 0,-0.26912 0.0569,-0.44498 0.1709,-0.52709 0.11861,-0.0867 0.43127,-0.12991 0.9376,-0.12991 h 0.33542 v -0.43768 c -0.32842,0.0274 -1.01535,0.041 -2.05992,0.041 -1.05369,0 -1.74429,-0.0136 -2.07271,-0.041 z m 18.90458,0 v 0.43766 h 0.33543 c 0.50175,0 0.81154,0.0433 0.93012,0.12991 0.1186,0.0821 0.17783,0.25797 0.17783,0.52709 v 7.38251 c 0,0.27369 -0.0592,0.45374 -0.17783,0.5404 -0.11403,0.0821 -0.42382,0.12352 -0.93012,0.12352 h -0.33543 v 0.43073 h 7.30052 l 0.39026,-3.61245 h -0.34926 c -0.0365,0.38315 -0.075,0.68219 -0.11608,0.89659 -0.0365,0.21438 -0.11642,0.49037 -0.23958,0.82791 -0.1186,0.33298 -0.26903,0.58825 -0.45149,0.76615 -0.18246,0.1779 -0.44481,0.33724 -0.78692,0.47864 -0.34211,0.14141 -0.75018,0.21243 -1.22455,0.21243 h -1.1495 c -0.31474,0 -0.50896,-0.0319 -0.58193,-0.0958 -0.0684,-0.0684 -0.10272,-0.22358 -0.10272,-0.46533 v -7.47142 c 0,-0.18703 0.0161,-0.31729 0.0479,-0.39027 0.0319,-0.0776 0.14621,-0.14385 0.34234,-0.19859 0.19615,-0.0547 0.50829,-0.082 0.93706,-0.082 h 0.46533 v -0.43763 c -0.33754,0.0274 -1.12223,0.041 -2.35382,0.041 -1.09017,0 -1.79912,-0.0136 -2.12754,-0.041 z m -82.58658,0.041 v 0.43765 h 0.33543 c 0.50175,0 0.81154,0.0438 0.93013,0.13043 0.1186,0.0821 0.17783,0.25743 0.17783,0.52656 v 7.34152 c 0,0.27369 -0.0592,0.45374 -0.17783,0.5404 -0.11403,0.0821 -0.42382,0.12352 -0.93013,0.12352 h -0.33543 v 0.43073 l 8.08051,5.3e-4 0.58833,-3.61298 h -0.34873 c -0.0639,0.41053 -0.12548,0.74155 -0.18475,0.99243 -0.0547,0.25087 -0.13232,0.51269 -0.23268,0.78638 -0.0958,0.26912 -0.21425,0.47932 -0.35565,0.62984 -0.13684,0.15053 -0.30798,0.29206 -0.51325,0.42434 -0.20527,0.12772 -0.45636,0.21892 -0.75284,0.27367 -0.29194,0.0502 -0.63841,0.0751 -1.03981,0.0751 h -1.86826 c -0.31474,0 -0.50842,-0.0319 -0.5814,-0.0958 -0.0684,-0.0684 -0.10272,-0.22358 -0.10272,-0.46533 v -3.7429 h 1.25917 c 0.64316,0 1.05594,0.11428 1.2384,0.34235 0.18245,0.22807 0.27367,0.65921 0.27367,1.29324 h 0.35565 v -3.70829 h -0.35565 c 0,0.64315 -0.0912,1.07612 -0.27367,1.29963 -0.18246,0.22351 -0.59524,0.33542 -1.2384,0.33542 h -1.25917 v -3.35955 c 0,-0.24174 0.0343,-0.39454 0.10272,-0.45842 0.0684,-0.0684 0.2621,-0.10272 0.5814,-0.10272 h 1.80649 c 0.5337,0 0.96483,0.0479 1.29325,0.14375 0.33299,0.0912 0.60006,0.25583 0.80076,0.49302 0.20527,0.2372 0.34862,0.51081 0.43073,0.82099 0.0866,0.3056 0.16186,0.72494 0.22574,1.25864 h 0.34926 l -0.39025,-3.15405 z m 13.09589,0.39665 c 0.26913,0 0.48824,0.005 0.65701,0.0138 0.16876,0.009 0.37608,0.0316 0.6224,0.0681 0.24632,0.0365 0.44943,0.10282 0.60908,0.19859 0.15965,0.0912 0.31899,0.20969 0.47865,0.35565 0.15965,0.14597 0.27628,0.34255 0.34926,0.58886 0.0729,0.24631 0.10915,0.53356 0.10915,0.86198 0,0.27825 -0.0297,0.5288 -0.0889,0.75231 -0.0592,0.21895 -0.16884,0.43805 -0.3285,0.65701 -0.15965,0.21894 -0.40784,0.39009 -0.74538,0.51325 -0.33299,0.11859 -0.74814,0.17783 -1.24534,0.17783 h -1.55306 l -5.2e-4,-3.62631 c 0,-0.13227 0.005,-0.22584 0.0138,-0.28058 0.009,-0.0594 0.0345,-0.11385 0.0756,-0.16398 0.0411,-0.0502 0.11392,-0.0797 0.21882,-0.0889 0.0958,-0.0182 0.37177,-0.0277 0.82791,-0.0277 z m 34.96284,0.95142 1.58074,4.55644 H 160.173 Z m 28.62972,0 1.58075,4.55644 h -3.15458 z" />
    </g>
  </g>
</svg>
